<?xml version="1.0" encoding="utf-8"?>
<!-- Generator: Adobe Illustrator 25.2.3, SVG Export Plug-In . SVG Version: 6.00 Build 0)  -->
<svg version="1.1" id="Ebene_1" xmlns="http://www.w3.org/2000/svg" xmlns:xlink="http://www.w3.org/1999/xlink" x="0px" y="0px"
     viewBox="0 0 64 64" style="enable-background:new 0 0 64 64;" xml:space="preserve">
<style type="text/css">
    .st0{fill:#FFFFFF;}
</style>
    <rect width="64" height="64"/>
    <g id="Group-2" transform="translate(19.600000, 16.000000)">
    <path id="Path" class="st0" d="M24.6,23c0,6.1-5.4,9-11.3,9C8.2,32,3.4,30.1,0,26.5l4.4-4.3c1.8,1.7,4.9,4.3,8.5,4.3
        c2.7,0,5-1,5-3.5c0-2.8-3.3-3.5-7.4-5.4c-3.4-1.5-8.8-3.9-8.8-9C1.6,3,7,0,12.5,0c5.2,0,9.6,2,12.4,4.9l-4,4.2
        c-1.5-1.4-4.9-3.6-8.4-3.6c-1.1,0-4.1,0.3-4.1,3c0,1.9,1.6,3.1,5.8,4.6C20.1,15.4,24.6,17.8,24.6,23L24.6,23z"/>
</g>
</svg>
